<?xml version="1.0" standalone="no"?>
<!DOCTYPE svg PUBLIC "-//W3C//DTD SVG 20010904//EN"
 "http://www.w3.org/TR/2001/REC-SVG-20010904/DTD/svg10.dtd">
<svg version="1.0" xmlns="http://www.w3.org/2000/svg"
 width="474.000000pt" height="427.000000pt" viewBox="0 0 474.000000 427.000000"
 preserveAspectRatio="xMidYMid meet">

<g transform="translate(0.000000,427.000000) scale(0.100000,-0.100000)"
fill="#000000" stroke="none">
<path d="M2180 4260 c-734 -71 -1386 -514 -1711 -1163 -75 -150 -121 -267
-159 -411 -37 -139 -70 -341 -70 -426 l0 -65 -46 -25 c-66 -35 -136 -100 -166
-157 l-26 -48 78 -360 c42 -199 82 -370 88 -382 27 -49 139 -68 235 -39 l47
14 45 -87 c70 -132 223 -331 364 -472 353 -354 785 -563 1285 -620 146 -17
473 -6 612 20 212 40 380 96 574 192 349 173 623 416 842 747 64 98 162 282
185 347 9 26 20 33 84 54 83 26 259 111 277 134 9 11 12 105 10 378 l-3 364
-42 23 c-25 14 -67 25 -107 29 -36 3 -66 10 -66 14 0 43 -37 256 -60 346 -214
829 -912 1453 -1762 1578 -135 19 -383 27 -508 15z m-140 -727 c0 -5 -155
-280 -344 -612 l-344 -604 -204 2 c-111 1 -204 4 -206 6 -7 7 30 171 59 261
35 110 119 279 185 371 187 262 434 446 737 548 110 37 117 39 117 28z m800
-30 c212 -70 392 -183 561 -352 206 -207 337 -446 394 -719 21 -102 37 -295
29 -355 l-7 -50 -135 6 c-74 3 -136 8 -137 9 -11 16 -845 1489 -845 1494 0 8
52 -4 140 -33z m-1575 -1233 c389 -17 809 -66 1280 -150 711 -127 1327 -168
1736 -115 149 19 222 40 317 90 l82 44 0 -153 0 -153 -87 -41 c-239 -110 -534
-161 -869 -149 -153 5 -162 4 -167 -14 -3 -10 -1 -21 3 -24 5 -3 77 -8 162
-11 322 -13 648 43 886 152 l73 33 -3 -122 -3 -122 -60 -32 c-187 -101 -452
-168 -769 -193 -327 -26 -713 2 -1185 86 -527 94 -1012 151 -1443 170 l-158 7
-21 56 c-34 90 -72 248 -65 267 6 15 19 16 141 10 l135 -7 0 25 0 26 -144 0
c-89 0 -147 4 -151 10 -4 6 -9 78 -12 160 l-6 149 34 4 c19 2 41 4 49 5 8 1
119 -3 245 -8z m3383 -21 c60 -20 31 -64 -76 -119 -24 -12 -45 -20 -47 -18 -1
2 -5 38 -7 81 l-3 79 50 -6 c27 -4 65 -11 83 -17z m-4404 -196 c7 -80 18 -168
31 -249 5 -30 2 -34 -47 -62 -29 -17 -67 -40 -84 -52 l-31 -20 -31 146 c-35
161 -35 163 25 231 26 29 110 92 124 93 4 0 10 -39 13 -87z m69 -443 c14 -58
28 -112 31 -120 4 -10 -7 -21 -36 -34 -22 -10 -60 -38 -84 -60 l-43 -41 -15
65 c-35 159 -39 189 -26 205 12 15 142 97 146 92 1 -1 13 -49 27 -107z m82
-279 c19 -46 32 -87 30 -91 -3 -5 -28 -13 -56 -20 -98 -24 -179 8 -165 63 12
49 110 139 144 134 7 -1 28 -40 47 -86z m2904 -307 c-25 -30 -206 -144 -299
-188 -505 -239 -1107 -168 -1525 178 l-30 25 934 1 c845 0 932 -1 920 -16z"/>
<path d="M1398 2139 c-2 -41 -2 -76 -1 -78 2 -2 28 -6 58 -9 46 -4 55 -2 55
12 0 12 -10 16 -40 16 -33 0 -40 3 -40 20 0 17 7 20 41 20 49 0 50 23 1 28
-20 2 -32 9 -32 18 0 12 8 13 34 9 21 -4 36 -2 41 5 10 16 5 19 -57 26 l-56 7
-4 -74z"/>
<path d="M1546 2189 c-2 -8 -7 -42 -10 -75 l-5 -62 31 -6 c48 -10 57 -8 83 19
30 29 33 73 7 105 -21 26 -99 40 -106 19z m68 -25 c19 -7 22 -64 4 -82 -7 -7
-20 -12 -30 -12 -14 0 -18 8 -18 34 0 59 10 73 44 60z"/>
<path d="M1696 2159 c-10 -53 -7 -106 8 -118 20 -17 75 -17 92 0 7 8 17 43 20
77 6 52 4 62 -8 62 -17 0 -28 -29 -28 -75 0 -39 -17 -57 -41 -45 -14 8 -16 19
-12 70 5 49 3 60 -9 60 -9 0 -18 -13 -22 -31z"/>
<path d="M1867 2158 c-9 -7 -21 -26 -27 -42 -29 -78 55 -141 112 -84 26 26 9
37 -27 18 -32 -17 -55 -6 -55 25 0 55 33 82 60 50 16 -19 40 -19 40 -1 0 19
-39 46 -65 46 -12 0 -29 -6 -38 -12z"/>
<path d="M2010 2077 c-33 -60 -37 -73 -23 -76 9 -1 20 4 25 12 10 20 47 10 69
-17 27 -33 32 -14 19 67 -10 59 -16 76 -31 80 -15 4 -27 -9 -59 -66z m60 -19
c0 -5 -7 -8 -15 -8 -17 0 -18 2 -9 25 5 13 8 14 15 3 5 -7 9 -16 9 -20z"/>
<path d="M2130 2116 c0 -10 8 -16 21 -16 17 0 20 -5 16 -22 -18 -71 -19 -108
-4 -108 18 0 23 12 32 74 6 40 10 46 31 46 23 0 33 14 17 23 -5 3 -32 8 -60
12 -45 6 -53 4 -53 -9z"/>
<path d="M2251 2038 c-9 -57 -9 -73 1 -79 17 -11 19 -8 33 68 14 71 12 83 -9
83 -8 0 -17 -26 -25 -72z"/>
<path d="M2323 2064 c-21 -32 -22 -89 -2 -109 8 -8 29 -17 46 -21 45 -9 83 30
83 84 0 49 -24 72 -73 72 -28 0 -40 -6 -54 -26z m93 -29 c7 -28 -18 -75 -39
-75 -21 0 -37 22 -37 50 0 52 64 73 76 25z"/>
<path d="M2471 2007 c-14 -82 -14 -87 4 -87 9 0 16 14 20 38 4 20 8 41 9 46 1
5 11 -15 23 -45 34 -89 54 -78 69 39 5 43 4 52 -9 52 -10 0 -18 -14 -23 -42
l-7 -43 -23 53 c-32 71 -49 68 -63 -11z"/>
<path d="M1676 1924 c-12 -87 -9 -104 18 -104 13 0 38 -3 55 -6 24 -5 31 -3
31 9 0 10 -14 18 -39 22 -50 8 -46 35 5 35 24 0 34 5 34 15 0 10 -11 15 -35
15 -25 0 -35 4 -35 16 0 13 8 15 40 12 32 -3 40 0 38 12 -2 11 -18 16 -54 18
l-51 3 -7 -47z"/>
<path d="M1824 1947 c-10 -26 -9 -132 1 -137 5 -3 11 4 13 15 10 70 12 71 37
17 32 -70 51 -68 59 6 4 31 9 65 12 75 4 12 0 17 -15 17 -16 0 -20 -8 -23 -42
l-3 -43 -25 49 c-26 53 -46 68 -56 43z"/>
<path d="M1975 1916 c-13 -59 -22 -126 -17 -131 14 -14 31 -2 34 23 3 23 8 27
33 27 33 0 51 15 32 27 -7 4 -22 8 -35 8 -15 0 -22 5 -19 13 2 7 19 12 41 11
41 -1 52 22 14 30 -70 14 -78 14 -83 -8z"/>
<path d="M2110 1890 c-49 -49 -17 -140 50 -140 61 0 97 110 48 144 -31 22 -74
20 -98 -4z m83 -31 c14 -23 0 -67 -24 -74 -40 -13 -62 31 -38 76 12 23 47 22
62 -2z"/>
<path d="M2253 1819 c-7 -41 -10 -75 -8 -77 10 -11 35 10 35 28 0 16 5 21 23
18 17 -2 23 -11 25 -35 4 -38 31 -46 33 -10 1 12 2 29 3 39 1 9 4 20 9 24 14
14 7 53 -12 63 -10 6 -36 13 -58 17 l-39 6 -11 -73z m90 16 c1 -6 -10 -11 -25
-13 -26 -3 -38 14 -22 31 8 8 45 -7 47 -18z"/>
<path d="M2421 1841 c-10 -10 -22 -33 -26 -51 -15 -66 66 -118 110 -70 23 26
12 37 -19 20 -38 -20 -58 -7 -54 36 4 51 29 66 61 36 29 -27 37 -28 37 -3 0
24 -36 51 -67 51 -13 0 -32 -9 -42 -19z"/>
<path d="M2551 1768 c-12 -73 -8 -87 25 -88 6 0 26 -3 43 -6 24 -5 31 -3 31 9
0 10 -13 18 -35 23 -47 9 -49 39 -3 39 44 0 52 19 11 23 -22 2 -33 9 -33 19 0
13 8 14 40 9 31 -5 40 -3 40 8 0 15 -12 20 -71 30 l-36 6 -12 -72z"/>
<path d="M2695 1788 c-13 -57 -22 -118 -17 -123 15 -15 32 -2 32 24 0 17 5 33
10 36 6 4 10 -10 10 -34 0 -55 25 -54 51 2 l20 42 -7 -47 c-5 -39 -3 -48 8
-48 10 0 19 19 27 57 15 78 14 90 -10 96 -17 5 -24 -3 -42 -46 l-22 -52 -5 55
c-4 47 -8 55 -27 58 -16 2 -24 -3 -28 -20z"/>
<path d="M2867 1767 c-3 -9 -9 -42 -13 -75 l-6 -59 32 -7 c53 -10 80 -7 80 9
0 10 -10 15 -27 15 -37 0 -54 12 -44 29 6 9 18 11 40 6 24 -5 31 -3 31 9 0 9
-13 18 -34 22 -51 9 -37 34 15 27 32 -5 39 -3 39 11 0 9 -8 16 -17 16 -10 0
-34 3 -54 6 -27 5 -38 2 -42 -9z"/>
<path d="M2992 1688 c-6 -40 -9 -74 -7 -76 2 -3 11 -2 20 1 9 4 15 19 15 42 0
47 14 44 30 -6 13 -38 43 -68 54 -51 2 4 8 40 11 80 7 63 6 72 -9 72 -11 0
-16 -9 -16 -27 0 -54 -16 -58 -35 -9 -12 30 -24 46 -35 46 -14 0 -20 -14 -28
-72z"/>
<path d="M3138 1734 c-12 -11 1 -24 23 -24 17 0 20 -5 15 -27 -13 -67 -11 -98
5 -101 14 -2 18 9 24 57 6 56 9 61 31 61 15 0 24 6 24 15 0 9 -9 15 -22 15
-13 0 -39 3 -58 6 -19 3 -38 2 -42 -2z"/>
<path d="M1942 1647 c-6 -40 -8 -75 -4 -78 4 -4 31 -9 60 -13 42 -5 52 -4 52
8 0 9 -15 17 -40 21 -30 5 -40 12 -40 25 0 15 6 17 40 13 33 -5 40 -3 40 11 0
12 -9 16 -35 16 -26 0 -35 4 -35 16 0 14 7 16 40 11 30 -4 40 -2 40 9 0 13
-10 17 -76 28 l-32 5 -10 -72z"/>
<path d="M2090 1693 c0 -5 -5 -37 -11 -72 -8 -51 -7 -66 3 -72 10 -6 16 4 24
39 12 52 10 54 44 -33 5 -14 16 -25 24 -25 15 0 21 19 32 98 5 43 4 52 -9 52
-10 0 -18 -14 -23 -42 l-7 -43 -20 45 c-19 43 -33 60 -49 60 -5 0 -8 -3 -8 -7z"/>
<path d="M2262 1663 c-18 -7 -42 -57 -42 -88 0 -38 35 -68 76 -63 18 2 35 -1
37 -7 7 -18 19 2 24 44 6 40 5 41 -26 41 -21 0 -31 -5 -31 -15 0 -8 8 -15 17
-15 12 0 14 -3 6 -11 -6 -6 -21 -9 -34 -7 -19 2 -25 10 -27 36 -3 34 11 62 33
62 6 0 22 -9 35 -20 27 -23 44 -17 30 10 -18 33 -61 48 -98 33z"/>
<path d="M2396 1626 c-3 -12 -8 -48 -12 -79 -6 -47 -4 -57 9 -57 11 0 18 18
26 63 14 81 14 84 -3 90 -9 4 -16 -3 -20 -17z"/>
<path d="M2454 1601 c-3 -20 -10 -53 -14 -74 -8 -36 0 -54 19 -43 4 3 12 25
16 48 l7 43 20 -52 c27 -68 52 -72 62 -10 4 23 9 57 12 75 5 25 3 32 -10 32
-11 0 -18 -13 -22 -40 -8 -47 -19 -44 -35 10 -16 54 -46 60 -55 11z"/>
<path d="M2600 1553 c-6 -32 -12 -66 -14 -75 -3 -12 5 -19 25 -22 16 -3 43 -9
59 -12 23 -4 30 -2 30 10 0 11 -13 18 -40 22 -22 4 -40 8 -40 9 0 24 15 33 46
28 27 -4 34 -2 34 10 0 10 -10 17 -27 19 -14 2 -28 9 -31 16 -3 10 6 13 34 10
22 -1 39 2 41 9 4 12 -9 17 -69 27 l-36 7 -12 -58z"/>
<path d="M2733 1513 c-7 -38 -9 -71 -5 -75 14 -13 112 -21 112 -9 0 12 -7 15
-52 25 -16 4 -28 13 -28 22 0 12 9 15 37 12 48 -4 56 19 9 28 -22 4 -36 12
-36 21 0 12 8 13 40 8 32 -5 40 -4 40 8 0 14 -40 27 -84 27 -19 0 -23 -8 -33
-67z"/>
<path d="M2877 1538 c-3 -13 -9 -47 -13 -75 -5 -44 -4 -53 9 -53 8 0 18 12 21
26 5 19 12 25 29 22 17 -2 21 -9 19 -29 -2 -20 3 -28 19 -32 18 -5 20 -2 18
33 -2 21 3 45 10 54 20 24 4 54 -37 66 -55 15 -69 12 -75 -12z m67 -14 c25
-10 19 -34 -9 -34 -18 0 -25 5 -25 20 0 21 8 24 34 14z"/>
<path d="M3016 1483 c-4 -32 -9 -66 -12 -75 -4 -13 0 -18 14 -18 16 0 21 9 26
48 4 26 9 59 12 75 5 22 2 27 -14 27 -17 0 -21 -9 -26 -57z"/>
<path d="M3075 1483 c-3 -27 -9 -60 -11 -75 -5 -23 -2 -28 15 -28 18 0 21 6
21 40 0 22 3 40 8 40 4 0 15 -20 25 -45 27 -65 52 -62 61 8 9 78 7 97 -8 97
-8 0 -16 -17 -21 -42 l-8 -43 -20 48 c-13 30 -27 47 -38 47 -14 0 -19 -11 -24
-47z"/>
<path d="M3231 1484 c-26 -33 -27 -75 -3 -104 14 -17 30 -23 70 -25 l52 -2 0
43 c0 42 -1 44 -30 44 -20 0 -30 -5 -30 -15 0 -8 8 -15 17 -15 16 0 16 -1 0
-17 -27 -27 -52 -6 -52 43 0 33 4 40 22 42 12 2 33 -4 47 -14 25 -16 26 -15
26 3 0 29 -20 43 -61 43 -29 0 -43 -6 -58 -26z"/>
</g>
</svg>
